<svg width="263" height="40" viewBox="0 0 263 40" fill="none" xmlns="http://www.w3.org/2000/svg">
<g clip-path="url(#clip0_16_25)">
<path d="M32 37.0953C28.9518 38.0321 25.8277 38.6995 22.6636 39.09C19.2625 39.5094 15.8296 39.607 12.4102 39.3815C8.27425 39.1134 4.18279 38.3682 0.216773 37.1606C0.0574448 37.1116 0 37.0518 0 36.88C0.00578061 33.581 0.00758705 30.2837 0.00541932 26.9883C0.00225922 26.7549 0.0453784 26.5231 0.132271 26.3065C0.219163 26.0899 0.348095 25.8928 0.511572 25.7266C0.675049 25.5604 0.869811 25.4285 1.08454 25.3386C1.29926 25.2486 1.52967 25.2023 1.76236 25.2025C1.99313 25.2016 2.22175 25.2469 2.43484 25.3358C2.64793 25.4247 2.84119 25.5554 3.0033 25.7202C3.16542 25.885 3.29312 26.0806 3.37894 26.2955C3.46475 26.5105 3.50694 26.7405 3.50305 26.972C3.51064 29.3386 3.50305 31.7052 3.50305 34.0718V34.4231C11.8344 36.4895 20.1653 36.4895 28.4959 34.4231V34.0686C28.4959 28.474 28.5045 22.8794 28.4872 17.2848C28.4869 16.8973 28.6114 16.5201 28.8421 16.2093C29.0727 15.8985 29.3972 15.6707 29.7672 15.5599C30.1432 15.4588 30.542 15.4848 30.9017 15.6341C31.2615 15.7833 31.5621 16.0474 31.7572 16.3854C31.8082 16.4691 31.9989 16.7552 31.9989 16.9292L32 37.0953Z" fill="#F2F2F2"/>
<path d="M16.9646 0.5C17.3581 0.548942 17.7526 0.592445 18.146 0.646825C21.8117 1.15256 24.9289 2.75567 27.5128 5.4094C28.8146 6.75309 29.8683 8.31816 30.6246 10.0317C30.7981 10.4013 30.8389 10.8198 30.7401 11.2162C30.6414 11.6126 30.4091 11.9626 30.0826 12.2069C29.7622 12.4518 29.3669 12.5772 28.9644 12.5615C28.5619 12.5458 28.1775 12.39 27.877 12.1209C27.7094 11.9712 27.5741 11.7888 27.4792 11.5847C25.6366 7.58349 22.5736 5.07768 18.2566 4.23588C11.58 2.92968 4.99443 7.4606 3.75341 14.1602C3.61084 14.9907 3.53149 15.831 3.51604 16.6736C3.47702 17.9156 3.51604 19.1609 3.50195 20.404C3.49688 20.8214 3.34248 21.223 3.06692 21.5357C2.79136 21.8483 2.41298 22.0512 2.0008 22.1072C1.58888 22.1649 1.16996 22.0734 0.819183 21.8492C0.468404 21.6249 0.208715 21.2826 0.0866952 20.8837C0.034905 20.7089 0.00826176 20.5276 0.00757309 20.3453C-1.39531e-05 18.9891 -1.39531e-05 17.6318 0.00648923 16.2701C0.0682695 8.9941 5.31092 2.49356 12.4048 0.918723C13.2047 0.740358 14.0306 0.667489 14.8403 0.544591C14.9075 0.534803 14.9736 0.515226 15.0397 0.5H16.9646Z" fill="#F2F2F2"/>
</g>
<path d="M48 27.02V14.42H49.632V17.852L49.464 17.252C49.816 16.292 50.408 15.564 51.24 15.068C52.072 14.556 53.104 14.3 54.336 14.3V15.956C54.272 15.956 54.208 15.956 54.144 15.956C54.08 15.94 54.016 15.932 53.952 15.932C52.624 15.932 51.584 16.34 50.832 17.156C50.08 17.956 49.704 19.1 49.704 20.588V27.02H48Z" fill="white"/>
<path d="M63.1641 27.14C61.9481 27.14 60.8521 26.868 59.8761 26.324C58.9161 25.764 58.1561 25.004 57.5961 24.044C57.0361 23.068 56.7561 21.956 56.7561 20.708C56.7561 19.444 57.0361 18.332 57.5961 17.372C58.1561 16.412 58.9161 15.66 59.8761 15.116C60.8361 14.572 61.9321 14.3 63.1641 14.3C64.4121 14.3 65.5161 14.572 66.4761 15.116C67.4521 15.66 68.2121 16.412 68.7561 17.372C69.3161 18.332 69.5961 19.444 69.5961 20.708C69.5961 21.956 69.3161 23.068 68.7561 24.044C68.2121 25.004 67.4521 25.764 66.4761 26.324C65.5001 26.868 64.3961 27.14 63.1641 27.14ZM63.1641 25.628C64.0761 25.628 64.8841 25.428 65.5881 25.028C66.2921 24.612 66.8441 24.036 67.2441 23.3C67.6601 22.548 67.8681 21.684 67.8681 20.708C67.8681 19.716 67.6601 18.852 67.2441 18.116C66.8441 17.38 66.2921 16.812 65.5881 16.412C64.8841 15.996 64.0841 15.788 63.1881 15.788C62.2921 15.788 61.4921 15.996 60.7881 16.412C60.0841 16.812 59.5241 17.38 59.1081 18.116C58.6921 18.852 58.4841 19.716 58.4841 20.708C58.4841 21.684 58.6921 22.548 59.1081 23.3C59.5241 24.036 60.0841 24.612 60.7881 25.028C61.4921 25.428 62.2841 25.628 63.1641 25.628Z" fill="white"/>
<path d="M80.207 14.3C81.231 14.3 82.127 14.5 82.895 14.9C83.679 15.284 84.287 15.876 84.719 16.676C85.167 17.476 85.391 18.484 85.391 19.7V27.02H83.687V19.868C83.687 18.54 83.351 17.54 82.679 16.868C82.023 16.18 81.095 15.836 79.895 15.836C78.999 15.836 78.215 16.02 77.543 16.388C76.887 16.74 76.375 17.26 76.007 17.948C75.655 18.62 75.479 19.436 75.479 20.396V27.02H73.775V14.42H75.407V17.876L75.143 17.228C75.543 16.316 76.183 15.604 77.063 15.092C77.943 14.564 78.991 14.3 80.207 14.3Z" fill="white"/>
<path d="M98.5897 27.02V24.236L98.5177 23.78V19.124C98.5177 18.052 98.2137 17.228 97.6057 16.652C97.0137 16.076 96.1257 15.788 94.9417 15.788C94.1257 15.788 93.3497 15.924 92.6137 16.196C91.8777 16.468 91.2537 16.828 90.7417 17.276L89.9737 16.004C90.6137 15.46 91.3817 15.044 92.2777 14.756C93.1737 14.452 94.1177 14.3 95.1097 14.3C96.7417 14.3 97.9978 14.708 98.8778 15.524C99.7738 16.324 100.222 17.548 100.222 19.196V27.02H98.5897ZM94.2458 27.14C93.3018 27.14 92.4778 26.988 91.7738 26.684C91.0858 26.364 90.5577 25.932 90.1897 25.388C89.8217 24.828 89.6377 24.188 89.6377 23.468C89.6377 22.812 89.7898 22.22 90.0938 21.692C90.4138 21.148 90.9257 20.716 91.6297 20.396C92.3497 20.06 93.3098 19.892 94.5098 19.892H98.8537V21.164H94.5577C93.3417 21.164 92.4937 21.38 92.0137 21.812C91.5497 22.244 91.3177 22.78 91.3177 23.42C91.3177 24.14 91.5977 24.716 92.1577 25.148C92.7177 25.58 93.5018 25.796 94.5098 25.796C95.4698 25.796 96.2938 25.58 96.9818 25.148C97.6858 24.7 98.1978 24.06 98.5177 23.228L98.9017 24.404C98.5817 25.236 98.0217 25.9 97.2217 26.396C96.4377 26.892 95.4458 27.14 94.2458 27.14Z" fill="white"/>
<path d="M105.55 27.02V9.212H107.254V27.02H105.55Z" fill="white"/>
<path d="M117.711 27.14C116.511 27.14 115.431 26.868 114.471 26.324C113.527 25.78 112.783 25.028 112.239 24.068C111.695 23.092 111.423 21.972 111.423 20.708C111.423 19.428 111.695 18.308 112.239 17.348C112.783 16.388 113.527 15.644 114.471 15.116C115.431 14.572 116.511 14.3 117.711 14.3C118.815 14.3 119.799 14.548 120.663 15.044C121.543 15.54 122.239 16.268 122.751 17.228C123.279 18.172 123.543 19.332 123.543 20.708C123.543 22.068 123.287 23.228 122.775 24.188C122.263 25.148 121.567 25.884 120.687 26.396C119.823 26.892 118.831 27.14 117.711 27.14ZM117.831 25.628C118.727 25.628 119.527 25.428 120.231 25.028C120.951 24.612 121.511 24.036 121.911 23.3C122.327 22.548 122.535 21.684 122.535 20.708C122.535 19.716 122.327 18.852 121.911 18.116C121.511 17.38 120.951 16.812 120.231 16.412C119.527 15.996 118.727 15.788 117.831 15.788C116.951 15.788 116.159 15.996 115.455 16.412C114.751 16.812 114.191 17.38 113.775 18.116C113.359 18.852 113.151 19.716 113.151 20.708C113.151 21.684 113.359 22.548 113.775 23.3C114.191 24.036 114.751 24.612 115.455 25.028C116.159 25.428 116.951 25.628 117.831 25.628ZM122.583 27.02V23.228L122.751 20.684L122.511 18.14V9.212H124.215V27.02H122.583Z" fill="white"/>
<path d="M135.085 31.868C133.869 31.868 132.693 31.716 131.557 31.412C130.437 31.124 129.501 30.684 128.749 30.092L130.237 27.404C130.781 27.852 131.469 28.204 132.301 28.46C133.149 28.732 133.981 28.868 134.797 28.868C136.125 28.868 137.085 28.572 137.677 27.98C138.285 27.388 138.589 26.508 138.589 25.34V23.396L138.829 20.156L138.781 16.892V14.108H142.333V24.86C142.333 27.26 141.709 29.028 140.461 30.164C139.213 31.3 137.421 31.868 135.085 31.868ZM134.509 26.396C133.309 26.396 132.221 26.14 131.245 25.628C130.285 25.1 129.509 24.372 128.917 23.444C128.341 22.5 128.053 21.404 128.053 20.156C128.053 18.892 128.341 17.796 128.917 16.868C129.509 15.924 130.285 15.196 131.245 14.684C132.221 14.172 133.309 13.916 134.509 13.916C135.597 13.916 136.557 14.14 137.389 14.588C138.221 15.02 138.869 15.7 139.333 16.628C139.797 17.54 140.029 18.716 140.029 20.156C140.029 21.58 139.797 22.756 139.333 23.684C138.869 24.596 138.221 25.276 137.389 25.724C136.557 26.172 135.597 26.396 134.509 26.396ZM135.253 23.324C135.909 23.324 136.493 23.196 137.005 22.94C137.517 22.668 137.917 22.292 138.205 21.812C138.493 21.332 138.637 20.78 138.637 20.156C138.637 19.516 138.493 18.964 138.205 18.5C137.917 18.02 137.517 17.652 137.005 17.396C136.493 17.124 135.909 16.988 135.253 16.988C134.597 16.988 134.013 17.124 133.501 17.396C132.989 17.652 132.581 18.02 132.277 18.5C131.989 18.964 131.845 19.516 131.845 20.156C131.845 20.78 131.989 21.332 132.277 21.812C132.581 22.292 132.989 22.668 133.501 22.94C134.013 23.196 134.597 23.324 135.253 23.324Z" fill="white"/>
<path d="M151.966 27.212C150.894 27.212 149.934 27.004 149.086 26.588C148.254 26.172 147.606 25.54 147.142 24.692C146.678 23.828 146.446 22.732 146.446 21.404V14.108H150.19V20.852C150.19 21.924 150.414 22.716 150.862 23.228C151.326 23.724 151.974 23.972 152.806 23.972C153.382 23.972 153.894 23.852 154.342 23.612C154.79 23.356 155.142 22.972 155.398 22.46C155.654 21.932 155.782 21.276 155.782 20.492V14.108H159.526V27.02H155.974V23.468L156.622 24.5C156.19 25.396 155.55 26.076 154.702 26.54C153.87 26.988 152.958 27.212 151.966 27.212Z" fill="white"/>
<path d="M163.694 27.02V14.108H167.438V27.02H163.694ZM165.566 12.308C164.878 12.308 164.318 12.108 163.886 11.708C163.454 11.308 163.238 10.812 163.238 10.22C163.238 9.628 163.454 9.132 163.886 8.732C164.318 8.332 164.878 8.132 165.566 8.132C166.254 8.132 166.814 8.324 167.246 8.708C167.678 9.076 167.894 9.556 167.894 10.148C167.894 10.772 167.678 11.292 167.246 11.708C166.83 12.108 166.27 12.308 165.566 12.308Z" fill="white"/>
<path d="M171.613 27.02V9.212H175.357V27.02H171.613Z" fill="white"/>
<path d="M187.38 13.916C188.404 13.916 189.316 14.124 190.116 14.54C190.932 14.94 191.572 15.564 192.036 16.412C192.5 17.244 192.732 18.316 192.732 19.628V27.02H188.988V20.204C188.988 19.164 188.756 18.396 188.292 17.9C187.844 17.404 187.204 17.156 186.372 17.156C185.78 17.156 185.244 17.284 184.764 17.54C184.3 17.78 183.932 18.156 183.66 18.668C183.404 19.18 183.276 19.836 183.276 20.636V27.02H179.532V9.212H183.276V17.684L182.436 16.604C182.9 15.74 183.564 15.076 184.428 14.612C185.292 14.148 186.276 13.916 187.38 13.916Z" fill="white"/>
<path d="M203.327 27.212C201.855 27.212 200.559 26.924 199.439 26.348C198.335 25.772 197.479 24.988 196.871 23.996C196.263 22.988 195.959 21.844 195.959 20.564C195.959 19.268 196.255 18.124 196.847 17.132C197.455 16.124 198.279 15.34 199.319 14.78C200.359 14.204 201.535 13.916 202.847 13.916C204.111 13.916 205.247 14.188 206.255 14.732C207.279 15.26 208.087 16.028 208.679 17.036C209.271 18.028 209.567 19.22 209.567 20.612C209.567 20.756 209.559 20.924 209.543 21.116C209.527 21.292 209.511 21.46 209.495 21.62H199.007V19.436H207.527L206.087 20.084C206.087 19.412 205.951 18.828 205.679 18.332C205.407 17.836 205.031 17.452 204.551 17.18C204.071 16.892 203.511 16.748 202.871 16.748C202.231 16.748 201.663 16.892 201.167 17.18C200.687 17.452 200.311 17.844 200.039 18.356C199.767 18.852 199.631 19.444 199.631 20.132V20.708C199.631 21.412 199.783 22.036 200.087 22.58C200.407 23.108 200.847 23.516 201.407 23.804C201.983 24.076 202.655 24.212 203.423 24.212C204.111 24.212 204.711 24.108 205.223 23.9C205.751 23.692 206.231 23.38 206.663 22.964L208.655 25.124C208.063 25.796 207.319 26.316 206.423 26.684C205.527 27.036 204.495 27.212 203.327 27.212Z" fill="white"/>
<path d="M212.76 27.02V14.108H216.336V17.756L215.832 16.7C216.216 15.788 216.832 15.1 217.68 14.636C218.528 14.156 219.56 13.916 220.776 13.916V17.372C220.616 17.356 220.472 17.348 220.344 17.348C220.216 17.332 220.08 17.324 219.936 17.324C218.912 17.324 218.08 17.62 217.44 18.212C216.816 18.788 216.504 19.692 216.504 20.924V27.02H212.76Z" fill="white"/>
<path d="M240.261 13.916C241.285 13.916 242.189 14.124 242.973 14.54C243.773 14.94 244.397 15.564 244.845 16.412C245.309 17.244 245.541 18.316 245.541 19.628V27.02H241.797V20.204C241.797 19.164 241.581 18.396 241.149 17.9C240.717 17.404 240.109 17.156 239.325 17.156C238.781 17.156 238.293 17.284 237.861 17.54C237.429 17.78 237.093 18.148 236.853 18.644C236.613 19.14 236.493 19.772 236.493 20.54V27.02H232.749V20.204C232.749 19.164 232.533 18.396 232.101 17.9C231.685 17.404 231.085 17.156 230.301 17.156C229.757 17.156 229.269 17.284 228.837 17.54C228.405 17.78 228.069 18.148 227.829 18.644C227.589 19.14 227.469 19.772 227.469 20.54V27.02H223.725V14.108H227.301V17.636L226.629 16.604C227.077 15.724 227.709 15.06 228.525 14.612C229.357 14.148 230.301 13.916 231.357 13.916C232.541 13.916 233.573 14.22 234.453 14.828C235.349 15.42 235.941 16.332 236.229 17.564L234.909 17.204C235.341 16.196 236.029 15.396 236.973 14.804C237.933 14.212 239.029 13.916 240.261 13.916Z" fill="white"/>
<path d="M256.099 27.212C254.627 27.212 253.331 26.924 252.211 26.348C251.107 25.772 250.251 24.988 249.643 23.996C249.035 22.988 248.731 21.844 248.731 20.564C248.731 19.268 249.027 18.124 249.619 17.132C250.227 16.124 251.051 15.34 252.091 14.78C253.131 14.204 254.307 13.916 255.619 13.916C256.883 13.916 258.019 14.188 259.027 14.732C260.051 15.26 260.859 16.028 261.451 17.036C262.043 18.028 262.339 19.22 262.339 20.612C262.339 20.756 262.331 20.924 262.315 21.116C262.299 21.292 262.283 21.46 262.267 21.62H251.779V19.436H260.299L258.859 20.084C258.859 19.412 258.723 18.828 258.451 18.332C258.179 17.836 257.803 17.452 257.323 17.18C256.843 16.892 256.283 16.748 255.643 16.748C255.003 16.748 254.435 16.892 253.939 17.18C253.459 17.452 253.083 17.844 252.811 18.356C252.539 18.852 252.403 19.444 252.403 20.132V20.708C252.403 21.412 252.555 22.036 252.859 22.58C253.179 23.108 253.619 23.516 254.179 23.804C254.755 24.076 255.427 24.212 256.195 24.212C256.883 24.212 257.483 24.108 257.995 23.9C258.523 23.692 259.003 23.38 259.435 22.964L261.427 25.124C260.835 25.796 260.091 26.316 259.195 26.684C258.299 27.036 257.267 27.212 256.099 27.212Z" fill="white"/>
<defs>
<clipPath id="clip0_16_25">
<rect width="32" height="39" fill="white" transform="translate(0 0.5)"/>
</clipPath>
</defs>
</svg>
