<svg width="32" height="40" viewBox="0 0 32 40" fill="none" xmlns="http://www.w3.org/2000/svg">
<path d="M32 37.0953C28.9518 38.0321 25.8277 38.6995 22.6636 39.09C19.2625 39.5094 15.8296 39.607 12.4102 39.3815C8.27425 39.1134 4.18279 38.3682 0.216773 37.1606C0.0574448 37.1116 0 37.0518 0 36.88C0.00578061 33.581 0.00758705 30.2837 0.00541932 26.9883C0.00225922 26.7549 0.0453784 26.5231 0.132271 26.3065C0.219163 26.0899 0.348095 25.8928 0.511572 25.7266C0.675049 25.5604 0.869811 25.4285 1.08454 25.3386C1.29926 25.2486 1.52967 25.2023 1.76236 25.2025C1.99313 25.2016 2.22175 25.2469 2.43484 25.3358C2.64793 25.4247 2.84119 25.5554 3.0033 25.7202C3.16542 25.885 3.29312 26.0806 3.37894 26.2955C3.46475 26.5105 3.50694 26.7405 3.50305 26.972C3.51064 29.3386 3.50305 31.7052 3.50305 34.0718V34.4231C11.8344 36.4895 20.1653 36.4895 28.4959 34.4231V34.0686C28.4959 28.474 28.5045 22.8794 28.4872 17.2848C28.4869 16.8973 28.6114 16.5201 28.8421 16.2093C29.0727 15.8985 29.3972 15.6707 29.7672 15.5599C30.1432 15.4588 30.542 15.4848 30.9017 15.6341C31.2615 15.7833 31.5621 16.0474 31.7572 16.3854C31.8082 16.4691 31.9989 16.7552 31.9989 16.9292L32 37.0953Z" fill="#F2F2F2"/>
<path d="M16.9646 0.5C17.358 0.548942 17.7526 0.592445 18.146 0.646825C21.8116 1.15256 24.9288 2.75567 27.5128 5.4094C28.8146 6.75309 29.8682 8.31816 30.6245 10.0317C30.798 10.4013 30.8389 10.8198 30.7401 11.2162C30.6413 11.6126 30.409 11.9626 30.0826 12.2069C29.7622 12.4518 29.3669 12.5772 28.9644 12.5615C28.5619 12.5458 28.1774 12.39 27.8769 12.1209C27.7094 11.9712 27.574 11.7888 27.4792 11.5847C25.6366 7.58349 22.5736 5.07768 18.2566 4.23588C11.58 2.92968 4.9944 7.4606 3.75338 14.1602C3.61081 14.9907 3.53146 15.831 3.51601 16.6736C3.47699 17.9156 3.51601 19.1609 3.50192 20.404C3.49685 20.8214 3.34245 21.223 3.06689 21.5357C2.79133 21.8483 2.41295 22.0512 2.00077 22.1072C1.58885 22.1649 1.16993 22.0734 0.819152 21.8492C0.468373 21.6249 0.208684 21.2826 0.0866646 20.8837C0.0348744 20.7089 0.00823125 20.5276 0.00754258 20.3453C-4.44707e-05 18.9891 -4.44707e-05 17.6318 0.00645871 16.2701C0.068239 8.9941 5.31089 2.49356 12.4048 0.918723C13.2047 0.740358 14.0306 0.667489 14.8402 0.544591C14.9074 0.534803 14.9735 0.515226 15.0397 0.5H16.9646Z" fill="#F2F2F2"/>
</svg>
