<svg width="32" height="32" viewBox="0 0 32 32" fill="none" xmlns="http://www.w3.org/2000/svg">
<g clip-path="url(#clip0_16_20)">
<path d="M16 32C24.8366 32 32 24.8366 32 16C32 7.16344 24.8366 0 16 0C7.16344 0 0 7.16344 0 16C0 24.8366 7.16344 32 16 32Z" fill="#F2F2F2"/>
<path d="M11.3037 8.75008C11.9936 8.75008 12.6233 8.81152 13.1929 8.93312C13.7625 9.05472 14.2489 9.2544 14.6547 9.53216C15.0605 9.80992 15.3753 10.1786 15.5993 10.6394C15.8233 11.1002 15.9347 11.6685 15.9347 12.3456C15.9347 13.0765 15.7683 13.6858 15.4368 14.1734C15.1053 14.6611 14.6137 15.0605 13.9648 15.3715C14.8582 15.6288 15.5251 16.0794 15.9654 16.7219C16.4057 17.3645 16.6259 18.1402 16.6259 19.0477C16.6259 19.7786 16.4838 20.4122 16.1997 20.9472C15.9155 21.4822 15.5328 21.9187 15.0515 22.2566C14.5702 22.5958 14.0224 22.8454 13.4067 23.008C12.7872 23.1706 12.1485 23.2525 11.5085 23.2512H4.47998V8.75008H11.3037ZM10.8979 14.6189C11.4662 14.6189 11.9334 14.4832 12.2995 14.2131C12.6656 13.9418 12.8486 13.5027 12.8473 12.8934C12.8473 12.5555 12.7859 12.2778 12.6643 12.0614C12.5427 11.8451 12.3801 11.6749 12.1766 11.5533C11.9731 11.4317 11.7401 11.3472 11.4765 11.2998C11.2051 11.2525 10.9299 11.2282 10.6534 11.2294H7.66974V14.6214L10.8979 14.6189ZM11.0809 20.7718C11.3817 20.7731 11.6813 20.7424 11.9744 20.681C12.2585 20.6195 12.5094 20.5184 12.7257 20.3763C12.9421 20.2342 13.1149 20.041 13.2441 19.7978C13.3721 19.5546 13.4374 19.2422 13.4374 18.8634C13.4374 18.1197 13.2275 17.5872 12.8077 17.2698C12.3878 16.951 11.8323 16.7923 11.1424 16.7923H7.66974V20.7731L11.0809 20.7718ZM20.6374 20.4672C21.0701 20.887 21.6934 21.097 22.5062 21.097C23.0886 21.097 23.5891 20.951 24.0089 20.6605C24.4288 20.3699 24.6861 20.0614 24.7808 19.7363H27.319C26.9133 20.9958 26.2899 21.8957 25.4502 22.4371C24.6105 22.9786 23.5955 23.2499 22.4038 23.2499C21.5782 23.2499 20.8333 23.1181 20.1702 22.8544C19.5072 22.5907 18.9453 22.2144 18.4845 21.7267C18.0237 21.239 17.6678 20.6579 17.4182 19.9808C17.1686 19.3037 17.0432 18.5587 17.0432 17.7472C17.0432 16.9626 17.1712 16.2317 17.4285 15.5546C17.6857 14.8774 18.0518 14.2925 18.5254 13.7984C18.999 13.3043 19.5648 12.9152 20.2214 12.631C20.8781 12.3469 21.6064 12.2048 22.4051 12.2048C23.2985 12.2048 24.0768 12.3776 24.7411 12.7232C25.4041 13.0688 25.9494 13.5322 26.3757 14.1146C26.8019 14.697 27.1104 15.36 27.2998 16.105C27.4893 16.8499 27.5571 17.6282 27.5033 18.441H19.9283C19.968 19.3715 20.2048 20.0486 20.6374 20.4672ZM23.8976 14.944C23.552 14.5651 23.0272 14.3757 22.3232 14.3757C21.8624 14.3757 21.4797 14.4538 21.1763 14.6086C20.8717 14.7648 20.6285 14.9568 20.4454 15.1872C20.2624 15.4176 20.1344 15.6608 20.0601 15.9181C19.9859 16.1754 19.9411 16.4058 19.9283 16.608H24.6195C24.4825 15.8784 24.2419 15.3229 23.8976 14.944ZM19.4342 9.48608H25.2953V11.1117H19.4342V9.48608Z" fill="#141414"/>
</g>
<defs>
<clipPath id="clip0_16_20">
<rect width="32" height="32" fill="white"/>
</clipPath>
</defs>
</svg>
