<svg width="32" height="32" viewBox="0 0 32 32" fill="none" xmlns="http://www.w3.org/2000/svg">
<path d="M0 2.29225C0 1.027 1.05925 0 2.365 0H29.635C30.9412 0 32 1.027 32 2.29225V29.7081C32 30.9737 30.9412 32 29.635 32H2.365C1.05938 32 0 30.9739 0 29.7085V2.29187V2.29225Z" fill="#F2F2F2"/>
<path d="M9.72456 26.7798V12.3733H4.93606V26.7798H9.72506H9.72456ZM7.33131 10.4066C9.00081 10.4066 10.0402 9.30038 10.0402 7.91788C10.0089 6.50388 9.00081 5.4285 7.36306 5.4285C5.72418 5.4285 4.65381 6.50388 4.65381 7.91775C4.65381 9.30025 5.69281 10.4065 7.29993 10.4065H7.33093L7.33131 10.4066ZM12.3751 26.7798H17.1632V18.7354C17.1632 18.3054 17.1944 17.8743 17.3209 17.5671C17.6669 16.7065 18.4548 15.8156 19.7779 15.8156C21.5102 15.8156 22.2036 17.1366 22.2036 19.0735V26.7798H26.9916V18.5195C26.9916 14.0946 24.6296 12.0355 21.4792 12.0355C18.8963 12.0355 17.7619 13.4791 17.1317 14.4624H17.1636V12.3738H12.3753C12.4378 13.7253 12.3749 26.7803 12.3749 26.7803L12.3751 26.7798Z" fill="#141414"/>
</svg>
