<svg width="32" height="32" viewBox="0 0 32 32" fill="none" xmlns="http://www.w3.org/2000/svg">
<path d="M10.6681 16C10.6681 13.0546 13.0552 10.6662 16.0006 10.6662C18.946 10.6662 21.3344 13.0546 21.3344 16C21.3344 18.9454 18.946 21.3338 16.0006 21.3338C13.0552 21.3338 10.6681 18.9454 10.6681 16ZM7.7848 16C7.7848 20.5376 11.463 24.2158 16.0006 24.2158C20.5382 24.2158 24.2164 20.5376 24.2164 16C24.2164 11.4624 20.5382 7.78419 16.0006 7.78419C11.463 7.78419 7.7848 11.4624 7.7848 16ZM22.6217 7.45843C22.6215 7.83817 22.734 8.20943 22.9448 8.52526C23.1557 8.84108 23.4554 9.08729 23.8062 9.23275C24.157 9.37821 24.543 9.41639 24.9155 9.34246C25.288 9.26852 25.6301 9.0858 25.8988 8.81739C26.1674 8.54898 26.3504 8.20694 26.4246 7.83453C26.4989 7.46211 26.461 7.07605 26.3158 6.72516C26.1706 6.37426 25.9247 6.0743 25.609 5.8632C25.2933 5.65211 24.9222 5.53935 24.5424 5.5392H24.5417C24.0327 5.53944 23.5445 5.74169 23.1846 6.10155C22.8246 6.4614 22.6221 6.94942 22.6217 7.45843ZM9.53661 29.0236C7.97667 28.9526 7.1288 28.6927 6.56535 28.4732C5.81834 28.1824 5.28535 27.836 4.72496 27.2764C4.16458 26.7168 3.8177 26.1843 3.52816 25.4373C3.30851 24.8741 3.04867 24.026 2.97776 22.466C2.90019 20.7795 2.88471 20.2729 2.88471 16.0001C2.88471 11.7274 2.90147 11.2221 2.97776 9.53421C3.0488 7.97427 3.31056 7.12781 3.52816 6.56294C3.81898 5.81594 4.16535 5.28294 4.72496 4.72256C5.28458 4.16218 5.81706 3.8153 6.56535 3.52576C7.12855 3.30611 7.97667 3.04627 9.53661 2.97536C11.2231 2.89779 11.7298 2.8823 16.0006 2.8823C20.2715 2.8823 20.7786 2.89907 22.4665 2.97536C24.0265 3.0464 24.8729 3.30816 25.4378 3.52576C26.1848 3.8153 26.7178 4.16294 27.2782 4.72256C27.8386 5.28218 28.1842 5.81594 28.475 6.56294C28.6946 7.12614 28.9545 7.97427 29.0254 9.53421C29.1029 11.2221 29.1184 11.7274 29.1184 16.0001C29.1184 20.2729 29.1029 20.7781 29.0254 22.466C28.9543 24.026 28.6932 24.8739 28.475 25.4373C28.1842 26.1843 27.8378 26.7173 27.2782 27.2764C26.7186 27.8355 26.1848 28.1824 25.4378 28.4732C24.8746 28.6929 24.0265 28.9527 22.4665 29.0236C20.78 29.1012 20.2734 29.1167 16.0006 29.1167C11.7278 29.1167 11.2226 29.1012 9.53661 29.0236ZM9.40413 0.096896C7.70083 0.174464 6.53693 0.444544 5.52048 0.840064C4.46781 1.24851 3.57667 1.79648 2.68618 2.68557C1.79568 3.57466 1.24912 4.4672 0.840674 5.51987C0.445154 6.53696 0.175074 7.70022 0.0975064 9.40352C0.0186584 11.1095 0.000610352 11.6549 0.000610352 16C0.000610352 20.3451 0.0186584 20.8905 0.0975064 22.5965C0.175074 24.2999 0.445154 25.463 0.840674 26.4801C1.24912 27.5322 1.79581 28.4257 2.68618 29.3144C3.57655 30.2031 4.46781 30.7503 5.52048 31.1599C6.53885 31.5555 7.70083 31.8255 9.40413 31.9031C11.111 31.9807 11.6555 32 16.0006 32C20.3457 32 20.8911 31.982 22.5971 31.9031C24.3005 31.8255 25.4636 31.5555 26.4807 31.1599C27.5328 30.7503 28.4245 30.2035 29.315 29.3144C30.2055 28.4253 30.7509 27.5322 31.1605 26.4801C31.5561 25.463 31.8274 24.2998 31.9037 22.5965C31.9813 20.8892 31.9993 20.3451 31.9993 16C31.9993 11.6549 31.9813 11.1095 31.9037 9.40352C31.8261 7.7001 31.5561 6.53632 31.1605 5.51987C30.7509 4.46784 30.2041 3.57606 29.315 2.68557C28.426 1.79507 27.5328 1.24851 26.482 0.840064C25.4637 0.444544 24.3004 0.173184 22.5984 0.096896C20.8924 0.019328 20.347 0 16.0019 0C11.6568 0 11.111 0.018048 9.40413 0.096896Z" fill="url(#paint0_radial_31_19)"/>
<path d="M10.6681 16C10.6681 13.0546 13.0552 10.6662 16.0006 10.6662C18.946 10.6662 21.3344 13.0546 21.3344 16C21.3344 18.9454 18.946 21.3338 16.0006 21.3338C13.0552 21.3338 10.6681 18.9454 10.6681 16ZM7.7848 16C7.7848 20.5376 11.463 24.2158 16.0006 24.2158C20.5382 24.2158 24.2164 20.5376 24.2164 16C24.2164 11.4624 20.5382 7.78419 16.0006 7.78419C11.463 7.78419 7.7848 11.4624 7.7848 16ZM22.6217 7.45843C22.6215 7.83817 22.734 8.20943 22.9448 8.52526C23.1557 8.84108 23.4554 9.08729 23.8062 9.23275C24.157 9.37821 24.543 9.41639 24.9155 9.34246C25.288 9.26852 25.6301 9.0858 25.8988 8.81739C26.1674 8.54898 26.3504 8.20694 26.4246 7.83453C26.4989 7.46211 26.461 7.07605 26.3158 6.72516C26.1706 6.37426 25.9247 6.0743 25.609 5.8632C25.2933 5.65211 24.9222 5.53935 24.5424 5.5392H24.5417C24.0327 5.53944 23.5445 5.74169 23.1846 6.10155C22.8246 6.4614 22.6221 6.94942 22.6217 7.45843ZM9.53661 29.0236C7.97667 28.9526 7.1288 28.6927 6.56535 28.4732C5.81834 28.1824 5.28535 27.836 4.72496 27.2764C4.16458 26.7168 3.8177 26.1843 3.52816 25.4373C3.30851 24.8741 3.04867 24.026 2.97776 22.466C2.90019 20.7795 2.88471 20.2729 2.88471 16.0001C2.88471 11.7274 2.90147 11.2221 2.97776 9.53421C3.0488 7.97427 3.31056 7.12781 3.52816 6.56294C3.81898 5.81594 4.16535 5.28294 4.72496 4.72256C5.28458 4.16218 5.81706 3.8153 6.56535 3.52576C7.12855 3.30611 7.97667 3.04627 9.53661 2.97536C11.2231 2.89779 11.7298 2.8823 16.0006 2.8823C20.2715 2.8823 20.7786 2.89907 22.4665 2.97536C24.0265 3.0464 24.8729 3.30816 25.4378 3.52576C26.1848 3.8153 26.7178 4.16294 27.2782 4.72256C27.8386 5.28218 28.1842 5.81594 28.475 6.56294C28.6946 7.12614 28.9545 7.97427 29.0254 9.53421C29.1029 11.2221 29.1184 11.7274 29.1184 16.0001C29.1184 20.2729 29.1029 20.7781 29.0254 22.466C28.9543 24.026 28.6932 24.8739 28.475 25.4373C28.1842 26.1843 27.8378 26.7173 27.2782 27.2764C26.7186 27.8355 26.1848 28.1824 25.4378 28.4732C24.8746 28.6929 24.0265 28.9527 22.4665 29.0236C20.78 29.1012 20.2734 29.1167 16.0006 29.1167C11.7278 29.1167 11.2226 29.1012 9.53661 29.0236ZM9.40413 0.096896C7.70083 0.174464 6.53693 0.444544 5.52048 0.840064C4.46781 1.24851 3.57667 1.79648 2.68618 2.68557C1.79568 3.57466 1.24912 4.4672 0.840674 5.51987C0.445154 6.53696 0.175074 7.70022 0.0975064 9.40352C0.0186584 11.1095 0.000610352 11.6549 0.000610352 16C0.000610352 20.3451 0.0186584 20.8905 0.0975064 22.5965C0.175074 24.2999 0.445154 25.463 0.840674 26.4801C1.24912 27.5322 1.79581 28.4257 2.68618 29.3144C3.57655 30.2031 4.46781 30.7503 5.52048 31.1599C6.53885 31.5555 7.70083 31.8255 9.40413 31.9031C11.111 31.9807 11.6555 32 16.0006 32C20.3457 32 20.8911 31.982 22.5971 31.9031C24.3005 31.8255 25.4636 31.5555 26.4807 31.1599C27.5328 30.7503 28.4245 30.2035 29.315 29.3144C30.2055 28.4253 30.7509 27.5322 31.1605 26.4801C31.5561 25.463 31.8274 24.2998 31.9037 22.5965C31.9813 20.8892 31.9993 20.3451 31.9993 16C31.9993 11.6549 31.9813 11.1095 31.9037 9.40352C31.8261 7.7001 31.5561 6.53632 31.1605 5.51987C30.7509 4.46784 30.2041 3.57606 29.315 2.68557C28.426 1.79507 27.5328 1.24851 26.482 0.840064C25.4637 0.444544 24.3004 0.173184 22.5984 0.096896C20.8924 0.019328 20.347 0 16.0019 0C11.6568 0 11.111 0.018048 9.40413 0.096896Z" fill="#F2F2F2"/>
<defs>
<radialGradient id="paint0_radial_31_19" cx="0" cy="0" r="1" gradientUnits="userSpaceOnUse" gradientTransform="translate(4.252 32.1512) scale(41.7733 41.7733)">
<stop offset="0.09" stop-color="#FA8F21"/>
<stop offset="0.78" stop-color="#D82D7E"/>
</radialGradient>
</defs>
</svg>
