<svg width="735" height="893" viewBox="0 0 735 893" fill="none" xmlns="http://www.w3.org/2000/svg">
<g clip-path="url(#clip0_73_36)">
<path d="M735 837.939C664.986 859.388 593.231 874.67 520.554 883.612C442.435 893.215 363.586 895.449 285.048 890.286C190.049 884.149 96.0735 867.086 4.979 839.434C1.31943 838.313 0 836.943 0 833.009C0.132773 757.469 0.174265 681.971 0.124475 606.515C0.0518914 601.169 1.04229 595.862 3.03809 590.902C5.0339 585.943 7.9953 581.429 11.7502 577.624C15.505 573.82 19.9785 570.799 24.9105 568.739C29.8424 566.679 35.1346 565.62 40.4793 565.624C45.7797 565.603 51.0309 566.641 55.9252 568.677C60.8196 570.712 65.2586 573.704 68.9821 577.478C72.7057 581.251 75.6389 585.73 77.61 590.652C79.581 595.574 80.5501 600.84 80.4606 606.141C80.6349 660.33 80.4606 714.52 80.4606 768.709V776.752C271.82 824.068 463.171 824.068 654.514 776.752V768.634C654.514 640.533 654.714 512.431 654.315 384.329C654.309 375.457 657.168 366.819 662.466 359.702C667.763 352.586 675.217 347.371 683.716 344.833C692.353 342.517 701.511 343.114 709.774 346.531C718.037 349.948 724.943 355.995 729.424 363.735C730.594 365.652 734.975 372.202 734.975 376.186L735 837.939Z" fill="black" fill-opacity="0.2"/>
<path d="M389.657 0C398.693 1.12064 407.755 2.11676 416.792 3.36192C500.987 14.9419 572.585 51.649 631.935 112.413C661.837 143.18 686.037 179.016 703.408 218.251C707.393 226.715 708.331 236.297 706.063 245.374C703.794 254.451 698.459 262.464 690.961 268.057C683.602 273.665 674.521 276.536 665.277 276.177C656.033 275.818 647.202 272.252 640.3 266.09C636.451 262.661 633.342 258.484 631.163 253.812C588.842 162.194 518.488 104.817 419.331 85.5421C265.978 55.6335 114.716 159.38 86.2114 312.783C82.9369 331.8 81.1143 351.04 80.7594 370.334C79.8632 398.773 80.7594 427.287 80.4358 455.751C80.3193 465.308 76.773 474.504 70.4437 481.663C64.1143 488.822 55.4235 493.466 45.9562 494.75C36.4949 496.07 26.8729 493.975 18.8159 488.841C10.759 483.707 4.79425 475.869 1.99161 466.734C0.802052 462.732 0.190091 458.581 0.174274 454.407C8.52944e-06 423.353 8.52944e-06 392.274 0.149379 361.095C1.56839 194.493 121.986 45.6474 284.923 9.58769C303.296 5.50358 322.266 3.83508 340.862 1.02103C342.406 0.796899 343.924 0.348643 345.443 0L389.657 0Z" fill="black" fill-opacity="0.2"/>
</g>
<defs>
<clipPath id="clip0_73_36">
<rect width="735" height="893" fill="white"/>
</clipPath>
</defs>
</svg>
