<svg width="599" height="728" viewBox="0 0 599 728" fill="none" xmlns="http://www.w3.org/2000/svg">
<g clip-path="url(#clip0_71_29)">
<path d="M599 683.113C541.941 700.598 483.463 713.057 424.234 720.346C360.569 728.175 296.31 729.996 232.304 725.787C154.884 720.784 78.2966 706.874 4.05772 684.331C1.07529 683.417 0 682.301 0 679.093C0.108206 617.511 0.14202 555.963 0.101443 494.449C0.0422897 490.091 0.849428 485.764 2.47594 481.721C4.10245 477.678 6.5159 473.998 9.57599 470.896C12.6361 467.795 16.2818 465.332 20.3012 463.653C24.3206 461.974 28.6335 461.11 32.9892 461.113C37.3089 461.097 41.5885 461.943 45.5772 463.602C49.5659 465.261 53.1835 467.701 56.2181 470.777C59.2527 473.853 61.6432 477.504 63.2495 481.517C64.8558 485.529 65.6456 489.822 65.5727 494.144C65.7147 538.321 65.5727 582.497 65.5727 626.674V633.232C221.524 671.805 377.469 671.805 533.407 633.232V626.613C533.407 522.181 533.569 417.749 533.245 313.317C533.24 306.083 535.57 299.042 539.887 293.24C544.204 287.438 550.279 283.187 557.206 281.118C564.244 279.23 571.708 279.717 578.442 282.502C585.176 285.288 590.804 290.217 594.455 296.527C595.409 298.09 598.98 303.43 598.98 306.678L599 683.113Z" fill="black" fill-opacity="0.2"/>
<path d="M317.557 0C324.922 0.913578 332.307 1.72565 339.671 2.74073C408.287 12.181 466.637 42.1058 515.005 91.642C539.374 116.724 559.097 145.939 573.254 177.924C576.501 184.825 577.266 192.637 575.417 200.036C573.568 207.436 569.22 213.969 563.11 218.528C557.112 223.1 549.712 225.44 542.178 225.148C534.644 224.855 527.447 221.947 521.822 216.924C518.686 214.129 516.152 210.724 514.376 206.915C479.886 132.225 422.55 85.45 341.741 69.7365C216.763 45.3541 93.4898 129.931 70.2594 254.99C67.5908 270.493 66.1054 286.178 65.8162 301.907C65.0858 325.092 65.8162 348.337 65.5524 371.542C65.4575 379.333 62.5674 386.83 57.4092 392.666C52.251 398.502 45.1683 402.288 37.4527 403.335C29.7421 404.411 21.9005 402.703 15.3344 398.518C8.76821 394.332 3.90715 387.943 1.6231 380.495C0.653653 377.233 0.154926 373.849 0.142034 370.446C1.44267e-05 345.13 1.44267e-05 319.793 0.121746 294.375C1.27819 158.557 99.4141 37.2131 232.203 7.81617C247.176 4.48668 262.636 3.12647 277.791 0.832371C279.049 0.649656 280.287 0.284224 281.524 0L317.557 0Z" fill="black" fill-opacity="0.2"/>
</g>
<defs>
<clipPath id="clip0_71_29">
<rect width="599" height="728" fill="white"/>
</clipPath>
</defs>
</svg>
